<svg width="120" height="120" viewBox="0 0 24 24" fill="none" xmlns="http://www.w3.org/2000/svg">
<path d="M4 8H18V14C18 17 15.5 19 12 19C8.5 19 6 17 6 14V8H4Z" fill="#6B4F4F"></path>
<path d="M18 9H20C21.1 9 22 9.9 22 11C22 12.1 21.1 13 20 13H18" stroke="#6B4F4F" stroke-width="2"></path>
<path d="M9 4C9 5 8 5.5 8 6.5C8 7 8.4 7.5 9 8" stroke="#6B4F4F" stroke-width="1.5"></path>
<path d="M12 4C12 5 11 5.5 11 6.5C11 7 11.4 7.5 12 8" stroke="#6B4F4F" stroke-width="1.5"></path>
<path d="M15 4C15 5 14 5.5 14 6.5C14 7 14.4 7.5 15 8" stroke="#6B4F4F" stroke-width="1.5"></path>
</svg>